#!OML:ASF I:\Actors\actors\Patient Classification 2\Patient 1\Session 1\actor1.ASF
:FULLY-SPECIFIED
:DEGREES
182
root -0.535399 18.7523 4.68908 3.57335 -0.193689 -0.373201
lowerback -1.68792 -0.767816 -0.708452
upperback -1.14097 -1.01472 1.73039
thorax -0.178819 -0.498782 2.15463
lowerneck -11.8689 -4.49772 -6.94564
upperneck 33.4007 -6.05067 3.43452
head 13.5905 -3.09661 1.65668
rclavicle -2.42579e-015 -1.70955e-014
rhumerus -17.2682 26.3179 -89.8048
rradius 67.837
rwrist -13.2665
rhand -0.5907 -41.641
rfingers 7.12502
rthumb 25.0245 -70.0219
lclavicle -2.42579e-015 -1.70955e-014
lhumerus 0.584679 -44.6534 88.401
lradius 61.5494
lwrist 3.58269
lhand -17.5317 -41.6146
lfingers 7.12502
lthumb 8.72231 -11.8148
rfemur 4.45787 -0.870321 13.6895
rtibia 3.18055e-015
rfoot -14.5794 -10.7073
rtoes -5.56359
lfemur -7.0373 -6.19344 -14.555
ltibia 21.3072
lfoot -20.8326 9.51953
ltoes -55.2252
183
root -0.53774 18.7536 4.69454 3.68963 -0.121558 -0.491605
lowerback -1.75714 -0.781716 -0.584323
upperback -1.18706 -1.03454 1.75181
thorax -0.188179 -0.508908 2.10598
lowerneck -11.8317 -4.52174 -7.0695
upperneck 33.3454 -6.08659 3.53099
head 13.5697 -3.11569 1.7112
rclavicle 1.69743e-014 -2.38542e-015
rhumerus -17.298 26.3052 -89.7387
rradius 67.8986
rwrist -13.3348
rhand -0.0208672 -42.608
rfingers 7.12502
rthumb 25.5704 -70.9117
lclavicle 1.69743e-014 -2.38542e-015
lhumerus 0.190209 -44.6286 88.4556
lradius 62.2518
lwrist 4.66716
lhand -17.1009 -40.4209
lfingers 7.12502
lthumb 9.13798 -10.6389
rfemur 4.35948 -0.946942 13.828
rtibia -6.36111e-015
rfoot -14.6018 -10.6541
rtoes -5.19328
lfemur -7.18743 -6.09991 -14.3853
ltibia 21.3424
lfoot -20.7739 9.38275
ltoes -55.2874
184
root -0.539949 18.7548 4.70201 3.77991 0.00955285 -0.679119
lowerback -1.79654 -0.816038 -0.350885
upperback -1.23478 -1.08307 1.76704
thorax -0.216946 -0.533931 1.98955
lowerneck -11.7238 -4.54198 -7.12484
upperneck 33.2314 -6.14015 3.63318
head 13.5061 -3.13422 1.75445
rclavicle -8.90183e-015 7.15625e-015
rhumerus -17.3146 26.3084 -89.7175
rradius 67.8666
rwrist -13.4197
rhand 0.0748382 -42.5926
rfingers 7.12502
rthumb 25.6621 -70.883
lclavicle -8.90183e-015 7.15625e-015
lhumerus -0.417234 -44.5608 88.5442
lradius 63.1777
lwrist 5.82496
lhand -16.4232 -39.183
lfingers 7.12502
lthumb 9.79187 -9.43067
rfemur 4.31105 -1.07415 14.0471
rtibia -3.18055e-015
rfoot -14.6195 -10.6227
rtoes -5.10575
lfemur -7.31258 -6.03406 -14.1407
ltibia 21.3824
lfoot -20.7123 9.22613
ltoes -55.3455
185
root -0.541833 18.7559 4.70529 3.84896 0.0788613 -0.745288
lowerback -1.75435 -0.843629 -0.249826
upperback -1.26841 -1.12049 1.74888
thorax -0.275877 -0.552798 1.91456
lowerneck -11.6263 -4.54023 -7.02767
upperneck 33.0835 -6.16436 3.6345
head 13.4174 -3.13378 1.7355
rclavicle 7.28049e-015 -1.31198e-014
rhumerus -17.2825 26.3617 -89.6682
rradius 67.7736
rwrist -13.5368
rhand -0.319728 -41.7438
rfingers 7.12502
rthumb 25.2841 -70.0882
lclavicle 7.28049e-015 -1.31198e-014
lhumerus -1.26057 -44.3817 88.7297
lradius 64.3101
lwrist 6.95988
lhand -15.8389 -37.7286
lfingers 7.12502
lthumb 10.3555 -8.00353
rfemur 4.26223 -1.14553 14.1327
rtibia 1.59028e-015
rfoot -14.6121 -10.6464
rtoes -5.49921
lfemur -7.41355 -6.11839 -14.0483
ltibia 21.4273
lfoot -20.7421 9.20158
ltoes -55.2938
186
root -0.543254 18.7567 4.70326 3.92609 0.0882597 -0.751696
lowerback -1.65703 -0.847875 -0.206196
upperback -1.2793 -1.12587 1.7397
thorax -0.342328 -0.555394 1.88226
lowerneck -11.5547 -4.53956 -6.89593
upperneck 32.8501 -6.15987 3.54057
head 13.2909 -3.12788 1.67651
rclavicle -4.84538e-015 2.78299e-015
rhumerus -17.1378 26.4751 -89.4782
rradius 67.6474
rwrist -13.6734
rhand -1.28524 -40.2585
rfingers 7.12502
rthumb 24.3588 -68.7304
lclavicle -4.84538e-015 2.78299e-015
lhumerus -2.22959 -44.1105 89.0057
lradius 65.5024
lwrist 8.03941
lhand -15.4028 -36.485
lfingers 7.12502
lthumb 10.7762 -6.78142
rfemur 4.16736 -1.16239 14.1497
rtibia 7.95139e-015
rfoot -14.6206 -10.6605
rtoes -5.53566
lfemur -7.51755 -6.29085 -14.0293
ltibia 21.4485
lfoot -20.8059 9.25599
ltoes -55.1009
187
root -0.543693 18.7579 4.69909 4.01159 0.0458163 -0.786213
lowerback -1.53018 -0.828512 -0.105396
upperback -1.27309 -1.10022 1.74956
thorax -0.409572 -0.542887 1.83812
lowerneck -11.5518 -4.56442 -6.85725
upperneck 32.6137 -6.17075 3.46774
head 13.185 -3.13631 1.63833
rclavicle 1.05356e-014 -5.1684e-015
rhumerus -16.8721 26.6351 -89.1827
rradius 67.4054
rwrist -13.7155
rhand -1.1359 -40.5155
rfingers 7.12502
rthumb 24.5019 -68.9681
lclavicle 1.05356e-014 -5.1684e-015
lhumerus -3.26359 -43.9512 89.1738
lradius 66.829
lwrist 9.2181
lhand -15.093 -35.561
lfingers 7.12502
lthumb 11.0751 -5.87319
rfemur 4.03887 -1.12679 14.1927
rtibia 6.36111e-015
rfoot -14.6444 -10.6783
rtoes -5.34618
lfemur -7.60791 -6.33789 -13.9826
ltibia 21.4274
lfoot -20.8025 9.31245
ltoes -54.9933
188
root -0.544263 18.7594 4.69556 4.09369 -0.0746904 -0.799319
lowerback -1.34415 -0.740174 0.0800645
upperback -1.31713 -0.98186 1.67628
thorax -0.567062 -0.484438 1.66342
lowerneck -11.4493 -4.62999 -6.8698
upperneck 32.4092 -6.29041 3.55435
head 13.0874 -3.18015 1.65734
rclavicle 1.86858e-014 1.27222e-014
rhumerus -16.6543 26.6514 -88.9386
rradius 66.9892
rwrist -13.6082
rhand 0.136169 -42.1001
rfingers 7.12502
rthumb 25.7208 -70.3821
lclavicle 1.86858e-014 1.27222e-014
lhumerus -4.6168 -44.1222 89.3061
lradius 68.3746
lwrist 10.5158
lhand -14.9396 -34.7531
lfingers 7.12502
lthumb 11.223 -5.07326
rfemur 3.90748 -1.01476 14.2081
rtibia 1.27222e-014
rfoot -14.6601 -10.6953
rtoes -5.08206
lfemur -7.66637 -6.29558 -13.9686
ltibia 21.3949
lfoot -20.7953 9.38616
ltoes -54.9407
189
root -0.545077 18.761 4.69289 4.15875 -0.281997 -0.752055
lowerback -1.16695 -0.608219 0.23069
upperback -1.34972 -0.8049 1.5651
thorax -0.708303 -0.397054 1.46885
lowerneck -11.2406 -4.72389 -6.85643
upperneck 32.1226 -6.45883 3.63379
head 12.9348 -3.24505 1.66376
rclavicle 1.07716e-014 4.77083e-015
rhumerus -16.3665 26.7687 -88.5887
rradius 66.5092
rwrist -13.7288
rhand 0.723997 -42.7965
rfingers 7.12502
rthumb 26.2837 -70.9958
lclavicle 1.07716e-014 4.77083e-015
lhumerus -6.3109 -44.2188 89.6619
lradius 69.8673
lwrist 11.5767
lhand -14.8567 -34.1035
lfingers 7.12502
lthumb 11.303 -4.42808
rfemur 3.78673 -0.819292 14.1481
rtibia 1.90833e-014
rfoot -14.642 -10.7099
rtoes -4.89763
lfemur -7.68157 -6.22607 -14.0364
ltibia 21.3643
lfoot -20.8271 9.48328
ltoes -54.8945
190
root -0.544061 18.764 4.69131 4.33015 -0.378448 -0.679788
lowerback -1.23305 -0.565523 0.241448
upperback -1.27872 -0.74984 1.56364
thorax -0.600015 -0.370077 1.46035
lowerneck -11.2448 -4.81895 -6.84107
upperneck 31.7886 -6.55116 3.52974
head 12.797 -3.29596 1.60535
rclavicle 4.94477e-015 1.11319e-014
rhumerus -15.7694 27.2787 -87.8884
rradius 66.1022
rwrist -14.1582
rhand 0.215883 -42.2404
rfingers 7.12502
rthumb 25.7971 -70.5113
lclavicle 4.94477e-015 1.11319e-014
lhumerus -7.91786 -44.0508 90.0089
lradius 71.1995
lwrist 12.3132
lhand -14.7303 -33.5682
lfingers 7.12502
lthumb 11.4249 -3.89944
rfemur 3.57915 -0.746847 14.065
rtibia 1.59028e-015
rfoot -14.6298 -10.728
rtoes -5.07774
lfemur -7.83528 -6.17831 -14.1094
ltibia 21.3307
lfoot -20.8089 9.55609
ltoes -54.9466
191
root -0.547015 18.7661 4.68922 4.47682 -0.657231 -0.661969
lowerback -1.2935 -0.454456 0.23187
upperback -1.1585 -0.604052 1.59422
thorax -0.446081 -0.29769 1.49685
lowerneck -11.3162 -4.91992 -6.85933
upperneck 31.4347 -6.66377 3.50486
head 12.6722 -3.34867 1.57915
rclavicle -9.26834e-015 -5.56597e-015
rhumerus -15.0695 27.7492 -87.0858
rradius 65.703
rwrist -14.3952
rhand -0.931924 -40.9641
rfingers 7.12502
rthumb 24.6975 -69.3901
lclavicle -9.26834e-015 -5.56597e-015
lhumerus -9.48773 -44.086 90.2266
lradius 72.4418
lwrist 12.8825
lhand -14.4448 -33.1043
lfingers 7.12502
lthumb 11.7002 -3.45106
rfemur 3.3646 -0.486903 14.0474
rtibia 0
rfoot -14.6297 -10.7708
rtoes -5.45357
lfemur -7.91872 -6.07104 -14.1336
ltibia 21.2951
lfoot -20.8589 9.73389
ltoes -54.9561
192
root -0.549218 18.7681 4.68672 4.57104 -0.887006 -0.669638
lowerback -1.26319 -0.319273 0.371702
upperback -1.07417 -0.425946 1.54023
thorax -0.38246 -0.209987 1.36448
lowerneck -11.2427 -5.02992 -6.96179
upperneck 31.0556 -6.86465 3.75124
head 12.5279 -3.41908 1.66181
rclavicle 1.70209e-015 -1.11319e-014
rhumerus -14.4657 28.0245 -86.3793
rradius 65.3064
rwrist -14.394
rhand -1.57842 -40.3341
rfingers 7.12502
rthumb 24.0777 -68.8435
lclavicle 1.70209e-015 -1.11319e-014
lhumerus -11.2438 -44.4095 90.4455
lradius 73.4897
lwrist 13.2039
lhand -13.9567 -32.6782
lfingers 7.12502
lthumb 12.1708 -3.05223
rfemur 3.20906 -0.268099 14.0579
rtibia -1.43125e-014
rfoot -14.6348 -10.8075
rtoes -5.56476
lfemur -7.96997 -6.01503 -14.132
ltibia 21.2686
lfoot -20.8974 9.91224
ltoes -54.95
193
root -0.551939 18.7702 4.68267 4.60438 -0.995448 -0.626145
lowerback -1.08148 -0.213475 0.485139
upperback -1.03673 -0.284013 1.44743
thorax -0.449894 -0.139951 1.20768
lowerneck -11.1163 -5.15696 -7.14077
upperneck 30.7109 -7.11132 4.10886
head 12.4002 -3.50657 1.794
rclavicle 6.58474e-016 -1.47101e-014
rhumerus -13.9588 28.2268 -85.6881
rradius 65.0134
rwrist -14.4294
rhand -1.52604 -40.3916
rfingers 7.12502
rthumb 24.1279 -68.8943
lclavicle 6.58474e-016 -1.47101e-014
lhumerus -13.2631 -44.8443 90.7564
lradius 74.3865
lwrist 13.2502
lhand -13.2517 -32.1899
lfingers 7.12502
lthumb 12.8506 -2.60548
rfemur 3.14196 -0.167636 14.011
rtibia 6.36111e-015
rfoot -14.6697 -10.7821
rtoes -5.28294
lfemur -7.99969 -5.91843 -14.1755
ltibia 21.2499
lfoot -20.8655 9.99637
ltoes -55.0421
194
root -0.55645 18.7723 4.68008 4.66258 -1.07619 -0.580011
lowerback -0.874818 -0.107097 0.556336
upperback -1.05016 -0.139617 1.37599
thorax -0.582298 -0.0683197 1.09601
lowerneck -10.9826 -5.2914 -7.30332
upperneck 30.4214 -7.3469 4.3792
head 12.2909 -3.59873 1.89162
rclavicle 1.26725e-015 -1.47101e-014
rhumerus -13.4949 28.3565 -84.9709
rradius 64.7871
rwrist -14.4838
rhand -0.710716 -41.1218
rfingers 7.12502
rthumb 24.9095 -69.5186
lclavicle 1.26725e-015 -1.47101e-014
lhumerus -15.5255 -45.2372 91.2667
lradius 75.1236
lwrist 13.1454
lhand -12.2407 -31.7897
lfingers 7.12502
lthumb 13.8251 -2.26912
rfemur 3.05901 -0.0974424 13.9657
rtibia 3.18055e-015
rfoot -14.6679 -10.7552
rtoes -5.23087
lfemur -8.04786 -5.86707 -14.2181
ltibia 21.2382
lfoot -20.8726 10.0999
ltoes -55.1507
195
root -0.560188 18.7747 4.68193 4.80647 -1.23808 -0.627583
lowerback -0.850191 0.0275725 0.682991
upperback -1.04914 0.0397786 1.36132
thorax -0.597662 0.020492 1.01058
lowerneck -10.8936 -5.40663 -7.35797
upperneck 30.1527 -7.52325 4.47916
head 12.1839 -3.67252 1.91378
rclavicle 1.73937e-015 1.19271e-015
rhumerus -12.9259 28.5235 -84.1266
rradius 64.5946
rwrist -14.5488
rhand 1.89529 -43.4007
rfingers 7.12502
rthumb 27.4044 -71.4277
lclavicle 1.73937e-015 1.19271e-015
lhumerus -17.82 -45.4501 91.9195
lradius 75.6121
lwrist 12.967
lhand -10.8279 -31.4774
lfingers 7.12502
lthumb 15.1863 -2.05474
rfemur 2.86706 0.0522443 14.0204
rtibia -3.18055e-015
rfoot -14.6146 -10.803
rtoes -5.71119
lfemur -8.14567 -5.89005 -14.1686
ltibia 21.2294
lfoot -20.9519 10.2974
ltoes -55.1587
196
root -0.562754 18.7772 4.685 4.94097 -1.3423 -0.702861
lowerback -0.821046 0.123539 0.831599
upperback -1.05858 0.16788 1.367
thorax -0.624898 0.0835413 0.933428
lowerneck -10.8253 -5.50036 -7.33537
upperneck 29.9246 -7.65685 4.48156
head 12.087 -3.73044 1.89205
rclavicle 8.15017e-015 -1.98785e-014
rhumerus -12.3178 28.7848 -83.2229
rradius 64.475
rwrist -14.6893
rhand -0.31609 -41.0959
rfingers 7.12502
rthumb 25.2876 -69.4398
lclavicle 8.15017e-015 -1.98785e-014
lhumerus -20.3015 -45.4742 92.7175
lradius 75.941
lwrist 12.7923
lhand -9.22777 -31.1343
lfingers 7.12502
lthumb 16.7272 -1.83498
rfemur 2.70268 0.14856 14.1063
rtibia -1.43125e-014
rfoot -14.6044 -10.8434
rtoes -5.96772
lfemur -8.25112 -5.90965 -14.0848
ltibia 21.2247
lfoot -20.9917 10.4623
ltoes -55.1681
